<?xml version="1.0" standalone="no"?>
<!DOCTYPE svg PUBLIC "-//W3C//DTD SVG 20010904//EN"
 "http://www.w3.org/TR/2001/REC-SVG-20010904/DTD/svg10.dtd">
<svg version="1.0" xmlns="http://www.w3.org/2000/svg"
 width="512.000000pt" height="512.000000pt" viewBox="0 0 512.000000 512.000000"
 preserveAspectRatio="xMidYMid meet">

<g transform="translate(0.000000,512.000000) scale(0.100000,-0.100000)"
fill="#000000" stroke="none">
<path d="M2325 5059 c-484 -46 -961 -241 -1344 -549 -124 -100 -327 -309 -417
-430 -290 -386 -459 -824 -503 -1300 -62 -664 159 -1349 598 -1858 l72 -83
-135 -186 c-101 -138 -136 -193 -136 -215 0 -37 48 -88 83 -88 16 0 93 50 216
140 l192 141 92 -70 c781 -587 1813 -674 2674 -226 392 204 733 518 967 890
426 678 503 1520 205 2267 -186 467 -526 884 -948 1163 -472 311 -1056 457
-1616 404z m902 -644 c280 -59 587 -269 896 -610 213 -236 349 -469 392 -671
27 -128 25 -135 -57 -199 -83 -65 -224 -136 -318 -160 -94 -23 -205 -29 -300
-16 -152 23 -120 44 -501 -338 -380 -380 -374 -372 -337 -473 11 -29 31 -83
44 -120 71 -196 53 -462 -43 -655 -70 -139 -153 -220 -243 -237 -143 -25 -415
118 -738 387 -116 97 -147 109 -215 83 -23 -9 -83 -47 -132 -84 -50 -37 -176
-130 -280 -206 -259 -190 -338 -248 -495 -364 -74 -55 -137 -98 -139 -96 -2 1
30 47 70 101 40 54 89 121 109 148 20 28 68 93 107 145 349 474 467 639 475
663 19 53 2 90 -110 228 -183 227 -302 419 -347 558 -27 82 -23 180 8 234 48
81 223 194 362 232 35 9 118 19 200 22 165 6 234 -7 353 -64 102 -50 161 -51
218 -6 21 17 177 170 346 340 341 343 336 336 318 448 -39 237 32 480 198 683
39 48 52 50 159 27z"/>
</g>
</svg>
